PathFileType	3	(X/Y/Z)	D:\Jess\Healthy\Labelled\HA22\20251031\SRRun01.trc
DataRate	CameraRate	NumFrames	NumMarkers	Units	OrigDataRate	OrigDataStartFrame	OrigNumFrames
250.0	250.0	4	37	mm	250.0	36250	2501
Frame#	Time	C7			T10			CLAV			LSHO			RSHO			LASIS			RASIS			LPSIS			RPSIS			LILCR			RILCR			LGTR			LTHI			LLTHI			LLEP			LMEP			LPSH			LLSH			LDSH			LLMAL			LMMAL			LTOE			L5TH			LHEE			RGTR			RTHI			RLTHI			RLEP			RMEP			RPSH			RLSH			RDSH			RLMAL			RMMAL			RTOE			R5TH			RHEE			
		X1	Y1	Z1	X2	Y2	Z2	X3	Y3	Z3	X4	Y4	Z4	X5	Y5	Z5	X6	Y6	Z6	X7	Y7	Z7	X8	Y8	Z8	X9	Y9	Z9	X10	Y10	Z10	X11	Y11	Z11	X12	Y12	Z12	X13	Y13	Z13	X14	Y14	Z14	X15	Y15	Z15	X16	Y16	Z16	X17	Y17	Z17	X18	Y18	Z18	X19	Y19	Z19	X20	Y20	Z20	X21	Y21	Z21	X22	Y22	Z22	X23	Y23	Z23	X24	Y24	Z24	X25	Y25	Z25	X26	Y26	Z26	X27	Y27	Z27	X28	Y28	Z28	X29	Y29	Z29	X30	Y30	Z30	X31	Y31	Z31	X32	Y32	Z32	X33	Y33	Z33	X34	Y34	Z34	X35	Y35	Z35	X36	Y36	Z36	X37	Y37	Z37	

1251	144.996	857.2313506580615	1511.992297709392	-870.2553732725436	827.9275679220954	1268.132674385657	-784.4485200403228	863.0994767606235	1403.878754180765	-1013.624318650169	696.8787760272094	1517.258318404399	-944.8104024060373	1029.066315504685	1485.777511992803	-927.4206886136024	716.5249094888729	989.8009379431514	-949.7600995173416	944.5430315922185	1017.715927417537	-930.8967880331371	792.8593762323994	1026.663564860587	-752.5275711716573	836.0843784913875	1033.35151233631	-747.6693152493643	668.2930550589782	1069.413985850312	-875.7305567763273	996.6557626146243	1074.155466598341	-854.9342793026343	656.3405520076806	834.9729454928353	-897.1659330213563	736.4302934364902	711.0124008890862	-1008.776761008021	668.5201403212109	619.9475186675846	-899.7742859402493	698.8518447634113	495.621684680005	-897.9903428497661	nan	nan	nan	745.7661168341314	410.1034093270289	-831.2426073248945	695.7590754142043	492.96272978944	-703.4009593960064	749.2066016530971	418.8434754887744	-626.9871849247185	723.6726992181657	475.9762090725328	-490.5310590745729	nan	nan	nan	718.4600678970399	311.8074138497649	-444.6922351017185	681.7903967742513	359.7672941105751	-413.4278058846382	794.8531860950244	548.2464039700426	-452.120603216542	1016.162104710283	879.007034217934	-877.1166619005908	940.001430841128	757.1383049155334	-1035.417865106025	994.6242686688114	667.6141635622206	-959.4506938199216	959.0026117303652	515.3081270382553	-981.7661110879669	nan	nan	nan	888.3086022481801	397.8079411126487	-1000.494464957383	951.6105258419162	322.0176176640283	-899.3941519802278	871.2607778979902	223.81662945535	-905.3524226719238	906.0464437280594	119.9840541936825	-798.1415442708742	nan	nan	nan	887.7623489879461	64.17058414369191	-944.7715738989343	936.2182607788264	44.93446027824241	-896.5056077433917	850.3863800010996	91.04504942089977	-704.5748869405396	
1252	145	857.8405710872457	1511.404897696812	-869.9870930110194	828.6095183815839	1267.876273028595	-783.5993717003028	862.2110559744955	1403.059482138801	-1013.377074420744	696.7231480242156	1516.665239725354	-942.9819993965161	1029.23127407684	1484.756866838999	-928.9620918636328	716.2618030672679	989.0816760081088	-947.9010693117938	944.2802256645031	1016.673381525529	-929.8127099863896	793.1415676224449	1026.73112017215	-750.9843120615645	836.3825402813087	1033.462760470361	-746.2890852324483	668.0158635709095	1068.90162152234	-873.1222375734412	996.8039662903279	1073.51352908078	-853.8292520999211	656.071252780999	834.7909144356105	-896.4522911306148	736.501602967465	712.5799956769753	-1011.161878404054	667.8912337542004	620.1931859540368	-904.6329735960013	698.6694417977966	496.117566603904	-905.3867448991344	nan	nan	nan	745.9507863710115	410.3934269376023	-839.7121788923473	695.7027723956655	492.6326979913491	-711.7031180782675	749.4439315669182	418.3129194561666	-635.4271631097026	723.6961326884077	474.6213790153998	-498.8343192167027	nan	nan	nan	719.0707073513667	310.1331742592945	-454.5667636310029	681.8505329010587	357.5891981125002	-423.1862331043595	794.1966739477721	547.0455095289193	-459.1894531194358	1016.057928858757	878.3133201379338	-874.8463315991073	939.1846269747631	754.6953757114837	-1031.707623755269	994.6746618080504	666.1514560865243	-955.2953652464031	959.0080790600572	513.421667294054	-975.5503109509617	nan	nan	nan	888.4213853519794	395.6894070895974	-992.5122938330895	951.612292360218	321.1117377050963	-890.5989764850228	871.4065293334306	222.9430821625645	-895.0693446445051	906.2943342692228	120.2977263962523	-786.5750397621312	nan	nan	nan	887.9253001240048	63.7527463538524	-932.8095040364818	936.2973270171684	44.7357811386	-884.4004397164548	850.4819644518968	91.95537509392224	-692.8515262801847	
1253	145.004	858.4163596421945	1511.070395197564	-869.7061447824135	829.3096299323175	1267.857554029907	-782.7908567500026	861.2659696863751	1402.60603766164	-1013.099531912691	696.5557991016292	1516.407463321571	-941.0939697216045	1029.283305260667	1484.100028072465	-930.5171163343325	716.033275877158	988.7446794057538	-946.0524638824838	944.0247315593399	1015.902377735336	-928.7911406756612	793.524892951124	1027.134128741345	-749.5005343676754	836.7795656672539	1033.867023479035	-744.9608260247099	667.7931685483051	1068.804394094981	-870.6455323367364	996.9612162215763	1073.261863067254	-852.8667775300931	655.7653823659632	834.9719305917495	-895.7186766164649	736.5893487094382	714.5525361396431	-1013.507320449493	667.3046083227821	620.885087258888	-909.4838698247269	698.5312289479451	497.0753873510467	-912.7492276585845	nan	nan	nan	746.1715888694531	411.021249395872	-848.2295428676695	695.6621996889577	492.3760725077566	-719.9282364669832	749.6970298225951	417.723717218322	-643.9136762891761	723.7112106817154	472.92139299608	-507.0851303094809	nan	nan	nan	719.7370855049957	308.0525388462992	-464.7063312151372	681.9621637598696	354.920251100108	-433.1090183334339	793.4982675235507	545.4389850186348	-466.0814241193884	1015.98242866689	877.8578767133937	-872.6047116452644	938.4233016849473	752.4363775707509	-1027.893516730745	994.7671577578182	664.9259530582553	-950.9650702432198	959.0768906338037	511.6969819453279	-968.9724375790724	nan	nan	nan	888.6356981229867	393.7132992539706	-984.2493265379167	951.6347703985299	320.3115020837979	-881.5314964606163	871.5861026465726	222.180790426432	-884.6639509268056	906.5271466768563	120.6582337781468	-774.9897270152151	nan	nan	nan	888.0730361056397	63.31691867092418	-920.8237751382196	936.3567524702847	44.53225779056797	-872.2621209997504	850.5652371152169	92.95513568390507	-681.1280494271293	
1254	145.008	858.9590845203098	1510.989085968903	-869.4171902209484	830.0307018906925	1268.072289749782	-782.0302425175108	860.2650599244753	1402.50841456698	-1012.800338062847	696.3773390267394	1516.479732399943	-939.1531654141015	1029.224983649012	1483.805805876084	-932.0877957108062	715.8418912959756	988.7797888455491	-944.2257601597837	943.7853256735004	1015.400867499614	-927.8388525738461	793.9984976040419	1027.842449831594	-748.0806367931254	837.2661012912413	1034.539132496	-743.6926801011733	667.6285279201505	1069.100112976545	-868.3191272091151	997.1245455401378	1073.372185510623	-852.0571192173485	655.4272961230924	835.5011019125416	-894.9812762262092	736.6790024742544	716.9263477162594	-1015.808061334668	666.7703297869903	622.0101604255032	-914.3016198938177	698.4349598213388	498.4866501149101	-920.0562547805238	nan	nan	nan	746.4260996456907	411.9840392887265	-856.7716136924689	695.638882877167	492.1921292133787	-728.054578973385	749.9655055147242	417.0769717485447	-652.4304154726351	723.7237851826766	470.8827146537091	-515.271757036267	nan	nan	nan	720.4479994270329	305.5841937783705	-475.099136869065	682.1244164330294	351.7830753926562	-443.1843954628532	792.7802947187176	543.415954659594	-472.7928866919511	1015.935857513094	877.6311652012004	-870.402860857689	937.7509759961081	750.3420287440223	-1023.978639039439	994.8908251453389	663.9267117979851	-946.4353774610084	959.2008469989513	510.1410828209566	-962.0341138782386	nan	nan	nan	888.9341354123026	391.8926242461074	-975.7211319248934	951.6702343838447	319.6363890882847	-872.2032212929754	871.7883206493476	221.5398868795765	-874.1456623911665	906.73930229728	121.0797981259402	-763.3876265430652	nan	nan	nan	888.2014432873639	62.87202689045351	-908.8113443022966	936.3953809151574	44.33629798685076	-860.0896584253143	850.6370222046531	94.05513732335598	-669.4047318922884	
